:SAMPLES-PER-SECOND 30
:FRAME-RANGE 1-3549
:FULLY-SPECIFIED
:DEGREES
1664
root  -22.3094 39.0975 -74.4006 6.43188 -82.8824 -4.7594
RightUpLeg  -21.9297 -6.7546 -8.01436
RightLeg  51.9808 -5.90265 -8.39784
RightFoot  1.90754 -0.886637 7.73528
RightToes  -1.11029e-010 1.2921e-014 -6.02303e-014
Spine  7.19107 2.40816 0.498624
Spine1  -2.62082 3.37401 -7.2006
HEad  -18.5456 56.0988 -20.0788
LeftShoulder1  0.772385 1.54007 -33.2479
LeftArm  12.7122 14.9104 -31.8113
LeftForeArm  0.399005 -11.9567 -13.9957
LeftHand  0.274734 -0.488556 -5.40842
RightShoulder  5.23884 6.38534 46.3927
RightArm  19.1909 -6.07662 10.8134
RightForeArm  9.09655 8.51037 15.0881
RightHand  0.118435 4.52334 1.09768
LeftUpLeg  -5.63329 2.29495 -9.33317
LeftLeg  15.3527 5.09206 -0.348375
LeftFoot  -11.4537 0.0790928 10.1933
LeftToes  -1.9349e-011 -1.19469e-011 -2.02219e-012
1665
root  -23.4682 39.2467 -74.6596 7.29846 -78.6743 -5.01135
RightUpLeg  -22.326 -6.10213 -8.74054
RightLeg  40.4739 -6.78007 -6.43019
RightFoot  1.58606 -0.886412 7.90745
RightToes  -1.11029e-010 1.2921e-014 -6.02303e-014
Spine  6.62103 2.03075 1.19915
Spine1  -2.4076 3.09659 -6.65449
HEad  -18.1923 53.7767 -18.6972
LeftShoulder1  0.783512 1.49863 -32.9924
LeftArm  14.0661 14.2432 -31.2314
LeftForeArm  -0.0255777 -12.335 -13.8215
LeftHand  0.246104 -0.364846 -4.95961
RightShoulder  4.99379 5.92052 46.4075
RightArm  15.4434 -5.87176 9.61975
RightForeArm  10.5527 7.4995 15.2573
RightHand  0.0925854 4.52068 0.795644
LeftUpLeg  -3.38573 2.74947 -7.82622
LeftLeg  13.7015 0.536056 -1.39527
LeftFoot  -12.1211 0.138734 9.62565
LeftToes  -1.9349e-011 -1.19469e-011 -2.02219e-012
1666
root  -24.6371 39.3144 -74.9092 6.40741 -74.8388 -3.31494
RightUpLeg  -21.5228 -5.1512 -10.076
RightLeg  26.5171 -7.74223 -4.3973
RightFoot  1.96099 -1.05632 9.15534
RightToes  -1.11029e-010 1.2921e-014 -6.02303e-014
Spine  5.82026 1.82721 1.32449
Spine1  -2.03614 2.93631 -6.03406
HEad  -18.2427 51.5479 -18.0249
LeftShoulder1  0.780787 1.49039 -32.699
LeftArm  14.5992 13.4195 -30.5027
LeftForeArm  -0.385057 -12.792 -13.5264
LeftHand  0.239151 -0.457595 -4.73076
RightShoulder  4.87383 5.72681 46.2403
RightArm  11.4602 -5.55793 8.69276
RightForeArm  13.238 5.67539 15.5999
RightHand  0.083444 4.534 0.686891
LeftUpLeg  -1.60496 2.91577 -6.70936
LeftLeg  12.4685 -3.68446 -2.00163
LeftFoot  -12.8759 0.196154 8.83534
LeftToes  -1.9349e-011 -1.19469e-011 -2.02219e-012
1667
root  -25.8704 39.276 -75.1399 4.68842 -71.3262 -1.28723
RightUpLeg  -19.3313 -5.26891 -11.4066
RightLeg  12.4468 -7.55845 -2.33487
RightFoot  1.76551 -1.14285 10.0294
RightToes  -1.11029e-010 1.2921e-014 -6.02303e-014
Spine  5.80002 1.67438 1.42737
Spine1  -2.03013 2.83097 -5.83306
HEad  -17.6963 49.757 -17.1195
LeftShoulder1  0.775714 1.47517 -32.1598
LeftArm  14.5944 13.1491 -29.6931
LeftForeArm  -0.899783 -13.7422 -12.8084
LeftHand  0.236643 -0.581267 -4.6545
RightShoulder  4.77145 5.57304 46.0313
RightArm  9.36683 -5.38936 8.10709
RightForeArm  14.8673 4.31395 15.8515
RightHand  0.0765679 4.56547 0.602597
LeftUpLeg  0.481364 3.07115 -5.81818
LeftLeg  11.8315 -7.42906 -2.29745
LeftFoot  -14.0095 0.276268 8.22506
LeftToes  -1.9349e-011 -1.19469e-011 -2.02219e-012
1668
root  -27.1865 39.1398 -75.3499 3.06622 -67.8015 0.0131836
RightUpLeg  -16.3976 -8.9786 -11.4006
RightLeg  1.20821 -4.05095 -1.06827
RightFoot  2.01543 -1.37358 11.8104
RightToes  -1.11029e-010 1.2921e-014 -6.02303e-014
Spine  5.54729 1.57153 1.68208
Spine1  -0.996816 2.75097 -5.56354
HEad  -17.5559 47.8721 -16.877
LeftShoulder1  0.845927 1.26941 -31.7843
LeftArm  15.3637 12.7243 -28.6864
LeftForeArm  -2.56148 -15.1485 -11.7597
LeftHand  0.231768 -0.727874 -4.3496
RightShoulder  4.74399 5.56135 45.8191
RightArm  8.3526 -5.22825 7.68814
RightForeArm  15.4532 3.50711 16.013
RightHand  0.0400857 4.4464 0.187373
LeftUpLeg  2.72573 3.24294 -4.72338
LeftLeg  12.3582 -11.0279 -2.47363
LeftFoot  -15.8733 0.396069 7.58302
LeftToes  -1.9349e-011 -1.19469e-011 -2.02219e-012
1669
root  -28.5485 38.9516 -75.5262 2.28204 -65.0929 0.309326
RightUpLeg  -14.9484 -9.40348 -11.4962
RightLeg  -2.29103 -3.71727 -0.598428
RightFoot  2.27984 -1.67616 14.1006
RightToes  -1.11029e-010 1.2921e-014 -6.02303e-014
Spine  5.44608 1.70075 2.63343
Spine1  -0.157615 2.88406 -5.28991
HEad  -16.4318 46.6568 -15.9939
LeftShoulder1  0.858424 1.21048 -31.3561
LeftArm  16.9746 12.8687 -27.5463
LeftForeArm  -4.56145 -17.0899 -10.177
LeftHand  0.228716 -0.879853 -4.17039
RightShoulder  4.84946 5.76336 45.8149
RightArm  7.89915 -4.94036 7.3061
RightForeArm  16.4679 2.56138 16.239
RightHand  0.0788831 4.70046 0.61265
LeftUpLeg  4.86212 1.55497 -4.06656
LeftLeg  13.1953 -12.0751 -1.44431
LeftFoot  -18.0574 0.478944 6.30451
LeftToes  -1.9349e-011 -1.19469e-011 -2.02219e-012
